<svg width="25" height="25" viewBox="0 0 25 25" fill="none" xmlns="http://www.w3.org/2000/svg">
<g clip-path="url(#clip0_7_409)">
<mask id="mask0_7_409" style="mask-type:luminance" maskUnits="userSpaceOnUse" x="-5" y="-5" width="35" height="35">
<path d="M-5 -5H30V30H-5V-5Z" fill="white"/>
</mask>
<g mask="url(#mask0_7_409)">
<path d="M25 12.5C25 5.59645 19.4035 0 12.5 0C5.59645 0 0 5.59645 0 12.5C0 18.3622 4.03575 23.2811 9.4803 24.6319V16.3198H6.9027V12.5H9.4803V10.854C9.4803 6.59944 11.4057 4.62745 15.5827 4.62745C16.3746 4.62745 17.741 4.7827 18.3 4.938V8.40069C18.005 8.36964 17.4926 8.35409 16.8559 8.35409C14.8063 8.35409 14.0143 9.13049 14.0143 11.1491V12.5H18.0973L17.3959 16.3198H14.0143V24.9084C20.2036 24.1609 25 18.8909 25 12.5Z" fill="#0866FF"/>
<path d="M17.3958 16.3198L18.0973 12.5H14.0143V11.1491C14.0143 9.13046 14.8062 8.35411 16.8559 8.35411C17.4925 8.35411 18.0049 8.36961 18.3 8.40066V4.93802C17.741 4.78272 16.3745 4.62741 15.5826 4.62741C11.4057 4.62741 9.48025 6.59946 9.48025 10.8541V12.5H6.90265V16.3198H9.48025V24.6319C10.4474 24.8718 11.4586 25 12.4999 25C13.0126 25 13.5178 24.9684 14.0143 24.9084V16.3198H17.3958Z" fill="white"/>
</g>
</g>
<defs>
<clipPath id="clip0_7_409">
<rect width="25" height="25" fill="white"/>
</clipPath>
</defs>
</svg>
